<?xml version="1.0" encoding="UTF-8" standalone="no"?>
<!-- Created with Inkscape (http://www.inkscape.org/) -->

<svg
   width="51.59375mm"
   height="43.86097mm"
   viewBox="0 0 51.59375 43.86097"
   version="1.1"
   id="svg1"
   xml:space="preserve"
   inkscape:version="1.3.2 (091e20e, 2023-11-25, custom)"
   sodipodi:docname="logo-ispi.svg"
   xmlns:inkscape="http://www.inkscape.org/namespaces/inkscape"
   xmlns:sodipodi="http://sodipodi.sourceforge.net/DTD/sodipodi-0.dtd"
   xmlns="http://www.w3.org/2000/svg"
   xmlns:svg="http://www.w3.org/2000/svg"><sodipodi:namedview
     id="namedview1"
     pagecolor="#ffffff"
     bordercolor="#000000"
     borderopacity="0.25"
     inkscape:showpageshadow="2"
     inkscape:pageopacity="0.0"
     inkscape:pagecheckerboard="0"
     inkscape:deskcolor="#d1d1d1"
     inkscape:document-units="mm"
     inkscape:zoom="2.6333614"
     inkscape:cx="143.92252"
     inkscape:cy="75.758687"
     inkscape:window-width="1920"
     inkscape:window-height="974"
     inkscape:window-x="-11"
     inkscape:window-y="-11"
     inkscape:window-maximized="1"
     inkscape:current-layer="layer1" /><defs
     id="defs1" /><g
     inkscape:label="Layer 1"
     inkscape:groupmode="layer"
     id="layer1"
     transform="translate(-79.298525,-126.56952)"><g
       id="g1"
       transform="matrix(0.12577289,0,0,0.12577289,139.63576,122.53128)"><g
         id="layer10"
         inkscape:label="Logo"
         style="display:inline"
         transform="translate(-539.42525,-45.827501)"><path
           d="M 259.7171,83.908248 A 168.70056,168.70056 0 0 1 428.41767,252.60882 168.70056,168.70056 0 1 1 259.7171,83.908248 Z"
           style="display:inline;fill:#ffffff;fill-opacity:1;stroke:#1b1918;stroke-width:3.65354;stroke-linecap:butt;stroke-linejoin:miter;stroke-dasharray:none"
           id="path1468"
           inkscape:export-filename="D:\ispi\dpw lampung.png"
           inkscape:export-xdpi="96"
           inkscape:export-ydpi="96" /><path
           d="m 259.7171,83.908248 c 93.17086,0 168.70057,75.529712 168.70057,168.700572 0,16.32164 -2.32555,32.09828 -6.65015,47.02617 -25.15207,-0.86169 -60.67211,-14.06307 -119.27211,-49.06044 -87.93914,-52.5193 -165.76775,-18.32604 -211.060735,13.84714 -0.2702,-3.90333 -0.41796,-7.84064 -0.41796,-11.81287 0,-93.17086 75.529715,-168.700572 168.700525,-168.700572 z"
           style="display:inline;fill:#e30016;fill-rule:evenodd;stroke-width:1.21789"
           id="path38"
           inkscape:export-filename="D:\ispi\dpw lampung.png"
           inkscape:export-xdpi="96"
           inkscape:export-ydpi="96" /><g
           id="Layer1002"
           transform="matrix(1.2178875,0,0,1.2178875,10.349275,-61.241059)"
           style="display:inline;fill:#ffff00;stroke:#000000;stroke-opacity:1"
           inkscape:export-filename="D:\ispi\dpw lampung.png"
           inkscape:export-xdpi="96"
           inkscape:export-ydpi="96"><path
             d="m 129.4921,263.3803 5.584,15.3013 9.2221,10.7531 c -0.3993,5.681 -0.8504,13.4232 -1.3955,23.2284 h -28.4533 l -0.3333,-46.2687 z"
             style="fill:#ffff00;fill-rule:evenodd;stroke:#000000;stroke-opacity:1"
             id="path43" /><path
             d="m 190.8586,273.7358 c -2.6242,-0.4567 -4.6176,-0.6856 -5.9578,-0.6856 -1.6649,0 -3.1892,0.4405 -4.5803,1.3426 -1.6674,1.0826 -2.4986,2.4874 -2.4986,4.2158 0,1.3438 1.518,3.9196 4.5629,7.7459 3.0386,3.8175 4.5629,7.3315 4.5629,10.5319 0,4.6588 -2.246,8.4888 -6.7355,11.4615 -4.273,2.8719 -9.5614,4.3153 -15.8452,4.3153 -5.811,0 -10.0852,-0.3148 -12.8364,-0.9569 -0.3099,-1.2866 -0.871,-3.3734 -1.6313,-6.2739 -0.5077,-1.5579 -1.1772,-3.6446 -2.0631,-6.2303 3.8922,0.7429 6.5003,1.1137 7.8579,1.1137 5.2697,0 7.894,-1.5716 7.894,-4.7297 0,-2.2871 -0.9631,-4.4758 -3.1855,-6.1445 -3.3783,-2.5371 -6.9359,-4.818 -10.4125,-7.2457 -1.9237,-1.3426 -3.5749,-2.7599 -4.9487,-4.2493 l 12.4246,3.8163 3.2813,0.7914 8.2026,-18.2467 21.1062,-3.5874 z"
             style="fill:#ffff00;fill-rule:evenodd;stroke:#000000;stroke-opacity:1"
             id="path45" /><path
             d="m 263.7623,266.7324 c 0,9.3423 -3.2228,16.8277 -9.6522,22.4428 -6.4282,5.6151 -14.9568,8.4139 -25.5871,8.4139 l -0.6147,15.0741 h -29.2254 l -1.5218,-36.8085 c -0.265,-6.4389 -0.6458,-6.2966 -1.1995,-16.0053 l 4.3477,-0.919 6.2527,-23.433 c 4.7769,-0.4334 5.6865,-0.2281 12.6722,-0.2281 12.9845,0 23.3957,2.4124 31.2001,7.2506 8.892,5.5144 13.328,13.5741 13.328,24.2125 z m -22.0557,8.2623 c 0,-5.1254 -3.2962,-7.7055 -9.8687,-7.7055 -0.7976,0 -1.594,0.051 -2.409,0.1516 l -0.5064,17.3 c 8.5286,-0.2696 12.7841,-3.5072 12.7841,-9.7461 z"
             style="fill:#ffff00;fill-rule:evenodd;stroke:#000000;stroke-opacity:1"
             id="path47" /><path
             d="m 266.2098,228.8543 1.2182,47.3627 c 0.229,8.9131 0.8524,21.0614 1.3949,36.4462 h 22.3617 l 4.1623,-83.9843 c -10.7447,-1.2307 -19.2683,-1.2282 -29.1371,0.1754 z"
             style="fill:#ffff00;fill-rule:evenodd;stroke:#000000;stroke-opacity:1"
             id="path49" /></g><path
           d="m 350.76394,189.48692 -22.87071,-1.11854 -5.22036,-25.6062 c 0,0 -24.1138,-50.96223 -81.04102,-48.47654 0,0 -48.47543,-1.24333 -70.10268,35.79715 -21.62738,37.04006 -12.6781,76.56599 -12.6781,76.56599 l -8.45215,8.70098 10.68955,14.91523 c 0,0 13.59673,-7.75027 27.59365,-12.92644 13.9967,-5.17648 114.60031,-31.32294 167.05374,-28.33976 0,0 4.22568,-7.95488 2.98258,-12.18079 -1.24295,-4.2261 -7.9545,-7.33108 -7.9545,-7.33108 z m -44.74772,-35.42678 c -49.95213,-31.56033 -94.31384,-27.27311 -132.99635,13.42393 13.00165,-25.36606 34.64427,-39.76487 64.88209,-43.25499 30.2393,-0.3305 52.45854,10.27518 68.11426,29.83106 z"
           style="display:inline;fill:#ffffff;fill-rule:evenodd;stroke:#000000;stroke-width:1.21789;stroke-opacity:1"
           id="path55"
           inkscape:export-filename="D:\ispi\dpw lampung.png"
           inkscape:export-xdpi="96"
           inkscape:export-ydpi="96" /><path
           d="m 256.79578,227.89289 -5.46905,20.8815 -38.0345,6.46359 -9.69511,21.87594 c 0,0 -19.88715,-5.71775 -26.3506,-5.71775 l -7.20928,-19.14128 c 0,0 32.56544,-15.16403 86.75854,-24.362 z"
           style="display:inline;fill:none;fill-opacity:1;fill-rule:evenodd;stroke:#000000;stroke-width:1.21789;stroke-opacity:1"
           id="path60"
           inkscape:export-filename="D:\ispi\dpw lampung.png"
           inkscape:export-xdpi="96"
           inkscape:export-ydpi="96" /><text
           x="148.35959"
           y="374.8913"
           id="text67"
           style="font-size:20.6772px;display:inline;fill:#000000;stroke-width:1.7231"
           inkscape:export-filename="D:\ispi\dpw lampung.png"
           inkscape:export-xdpi="96"
           inkscape:export-ydpi="96"><tspan
             font-family="Impact"
             font-size="57.724px"
             fill="#ffcb00"
             id="tspan65"
             style="fill:#000000;stroke-width:2.43788">NASIONAL</tspan></text><path
           d="m 236.88612,157.71163 c 6.3956,-0.98141 12.61707,1.94981 16.08086,4.91076 3.47782,2.97273 6.59744,7.62153 7.31146,13.81095 1.40011,12.13371 -7.99824,22.20622 -18.59687,23.28213 -19.30952,1.9603 -30.76741,-20.0664 -18.57916,-34.63405 3.64676,-4.35848 8.03101,-6.48697 13.78371,-7.36979 z m 9.47213,56.9356 h -0.81367 c -0.47729,-0.0368 -0.84388,-0.16019 -0.98943,-0.41059 l -2.08978,-5.56269 c -2.27804,0.0571 -4.23217,0.023 -6.46626,0.009 l -2.21871,5.79228 c -1.65999,0.20253 -3.64114,-0.0414 -5.05657,-0.4534 -0.70478,-0.20575 -1.34308,-0.4313 -1.9708,-0.73547 -0.69188,-0.3351 -1.21165,-0.76655 -1.79675,-0.99371 -0.009,-0.023 -0.0368,-0.0778 -0.046,-0.0598 -0.005,0.0184 -0.0368,-0.0488 -0.0469,-0.0584 -0.50771,-0.50615 0.47416,0.43268 -0.11277,-0.1091 -0.68028,-0.62757 -0.34615,-0.88235 0.076,-2.90576 0.19931,-0.95494 0.71439,-2.7685 0.68871,-3.64869 -0.81649,-0.56019 -1.84522,-1.03191 -2.71626,-1.61309 -0.96153,-0.64143 -1.54722,-1.1532 -2.47768,-1.79431 -0.90145,0.38942 -4.76497,3.68791 -5.18504,3.67963 -2.44477,-1.02717 -5.7741,-4.48074 -6.41604,-7.43267 l 4.45767,-4.53091 c -0.24304,-0.67628 -1.03909,-2.02193 -1.38155,-2.74852 -0.31393,-0.66606 -0.91306,-2.52431 -1.22786,-2.96652 l -6.40757,0.38343 c -0.85654,-1.95224 -1.61139,-3.30632 -1.77277,-5.81576 -0.0621,-0.91743 -0.0769,-3.34189 0.46767,-3.87838 0.39586,-0.42118 5.63251,-1.33308 6.31905,-1.57603 0.13533,-3.14365 0.78284,-4.81469 0.86869,-6.12283 -0.8205,-0.34937 -1.98612,-1.05934 -2.79967,-1.51481 -0.87885,-0.49202 -1.95642,-1.00572 -2.84477,-1.59969 -0.16663,-1.48775 0.6912,-4.05777 1.2106,-5.20305 0.78491,-1.73051 1.71675,-2.70314 2.77485,-3.76984 1.05115,0.0746 5.37184,2.13212 6.38134,2.14441 0.98882,-1.3607 2.81213,-3.51907 3.9233,-4.39958 -0.11139,-0.54951 -1.1358,-2.27648 -1.49212,-2.93218 -0.48838,-0.89847 -1.23021,-2.07726 -1.6008,-3.00003 0.748,-1.7869 5.27978,-5.33143 8.30513,-5.33704 0.91159,0.90988 3.39111,4.65611 4.07406,5.24935 0.7931,-0.15328 1.87762,-0.6366 2.72076,-0.89433 2.77398,-0.84737 3.02231,-0.24488 3.14337,-1.38519 0.0322,-0.30886 0.0368,-0.6557 0.0543,-0.96958 l 0.42578,-5.13727 c 1.76205,-0.51678 2.88082,-0.93658 5.01322,-0.96751 1.42151,-0.023 3.90991,0.38435 4.87628,1.04668 l 0.50168,6.70019 c 1.11435,0.18872 2.03873,0.40414 3.01766,0.70187 0.87895,0.26743 2.0513,0.77446 2.81379,0.94933 0.64171,-0.86188 3.67061,-4.71517 3.95171,-5.29865 3.16271,0.15742 6.50548,2.78456 8.03903,4.74002 0.62564,0.79794 0.23383,0.90524 -0.78689,2.76155 -0.34799,0.63319 -1.83302,3.19465 -1.90745,3.76635 0.68092,0.81865 1.75536,1.74556 2.99551,3.2879 0.30887,0.38481 0.57069,0.84337 0.94289,1.16903 1.06602,-0.15788 5.8489,-2.28435 6.29613,-2.14492 0.90404,0.67724 2.18709,2.62567 2.75497,3.70701 0.79089,1.50566 1.27099,3.24215 1.30961,5.23288 l -5.65539,3.10988 c -0.009,0.80627 0.37698,2.08076 0.52175,3.0016 0.14914,0.94716 0.0617,2.41862 0.42762,3.14387 1.2297,0.65791 5.31375,0.86054 6.22939,1.55693 0.55499,1.24407 0.49832,3.88506 0.23475,5.35228 -0.26974,1.50239 -0.87186,3.30949 -1.62515,4.28888 -1.65414,0.19333 -4.57606,-0.32359 -6.41608,-0.34108 -0.36364,0.9827 -0.71025,1.9341 -1.14966,2.92316 -1.56903,3.53173 -2.22386,1.98464 0.81097,5.05993 0.68603,0.69543 1.64328,1.53093 2.20352,2.25724 -0.61685,2.75501 -4.02996,6.68596 -6.43616,7.4485 -0.34292,-0.023 -4.22292,-3.18894 -5.06177,-3.65048 -0.61129,0.2191 -3.41302,2.61443 -5.34119,3.33734 l 1.26773,6.19113 c -0.2389,0.20944 -0.36088,0.21082 -0.45755,0.4465 -0.87397,0.31393 -1.86142,1.25515 -3.89472,1.87795 -0.48811,0.14959 -2.11436,0.56253 -3.44013,0.64488 z"
           style="display:inline;fill:#008000;fill-rule:evenodd;stroke-width:1.21789"
           id="path69"
           inkscape:export-filename="D:\ispi\dpw lampung.png"
           inkscape:export-xdpi="96"
           inkscape:export-ydpi="96" /><path
           d="m 222.32187,183.02223 11.84082,0.0138 c 0.0594,1.7109 -0.21174,11.73936 0.12474,12.34199 0.39218,0.20575 8.48524,0.20115 9.42827,0.0483 l 0.0322,-12.39787 11.83349,-0.0276 c 0.0856,-1.04913 0.1275,-8.87121 -0.0414,-9.50951 l -11.81862,-0.009 8.3e-4,-11.29981 -9.53359,0.0368 -0.0585,11.28457 -11.82852,0.002 z"
           style="display:inline;fill:#008000;fill-rule:evenodd;stroke-width:1.21789"
           id="path71"
           inkscape:export-filename="D:\ispi\dpw lampung.png"
           inkscape:export-xdpi="96"
           inkscape:export-ydpi="96" /><path
           d="m 224.95628,212.29332 0.0322,0.76908 c 0.002,-0.0184 0.0138,0.0691 0.0276,0.10311 0.0368,0.005 0.0847,-0.0138 0.10587,-0.0184 0.0184,-0.004 0.0727,-0.0138 0.0939,-0.0184 l 2.67676,0.97797 c 0.0414,0.0138 0.83403,0.22739 0.95081,0.53915 h 20.24532 c 0.0819,-0.26375 0.47936,-0.18366 0.97966,-0.32451 0.009,-0.002 0.24304,-0.0865 0.24626,-0.0875 l 0.56203,-0.0879 c 0.50882,-0.14039 0.75122,-0.45018 0.95072,-0.54159 0.023,-0.009 0.0548,-0.023 0.0792,-0.0322 0.0276,-0.009 0.0598,-0.0184 0.0879,-0.023 1.78505,-0.51379 0.97188,-0.67725 1.80503,-0.87992 l -0.10541,-0.54426 c -0.87398,0.31393 -1.86142,1.25516 -3.89472,1.87799 -0.48811,0.1496 -2.11436,0.56254 -3.44013,0.64484 m -0.81368,0 c -0.47729,-0.0368 -0.84387,-0.16018 -0.98942,-0.41059 l -2.08978,-5.56268 c -2.27805,0.0571 -4.23217,0.023 -6.46626,0.009 l -2.21871,5.79228 c -1.65999,0.20253 -3.64114,-0.0414 -5.05658,-0.4534 -0.70477,-0.20576 -1.34307,-0.43131 -1.97079,-0.73548 -0.69188,-0.3351 -1.21166,-0.76654 -1.79675,-0.9937"
           style="display:inline;fill:#fafffc;fill-rule:evenodd;stroke-width:1.21789"
           id="path73"
           inkscape:export-filename="D:\ispi\dpw lampung.png"
           inkscape:export-xdpi="96"
           inkscape:export-ydpi="96" /><path
           d="M 259.7171,83.908248 A 168.70056,168.70056 0 0 1 428.41767,252.60882 168.70056,168.70056 0 1 1 259.7171,83.908248 Z"
           style="display:inline;fill:none;stroke:#1b1918;stroke-width:3.65354;stroke-linecap:butt;stroke-linejoin:miter;stroke-dasharray:none"
           id="path75"
           inkscape:export-filename="D:\ispi\dpw lampung.png"
           inkscape:export-xdpi="96"
           inkscape:export-ydpi="96" /><path
           style="display:inline;fill:#ffffff;fill-opacity:1;fill-rule:evenodd;stroke:#000000;stroke-width:0.285037;stroke-opacity:1"
           d="m 176.28135,163.10414 c 0,-0.40737 3.49233,-5.67315 5.51472,-8.31553 12.44224,-16.25614 30.10176,-26.1066 52.77049,-29.43533 5.29055,-0.77686 14.60756,-0.36272 22.60847,1.00484 15.65089,2.67529 28.76992,8.95687 39.92179,19.11518 1.95749,1.78308 5.38924,5.32972 5.27127,5.4477 -0.0322,0.0322 -1.04996,-0.51361 -2.26217,-1.21239 -19.76559,-11.39377 -38.6242,-17.09293 -56.57379,-17.09684 -13.87959,-0.003 -27.81525,3.56266 -40.21128,10.2888 -9.02541,4.89727 -18.19596,11.67888 -25.63069,18.95389 -0.77483,0.75821 -1.40881,1.32057 -1.40881,1.24968 z"
           id="path2453"
           inkscape:export-filename="D:\ispi\dpw lampung.png"
           inkscape:export-xdpi="96"
           inkscape:export-ydpi="96" /></g></g></g></svg>
