<?xml version="1.0" encoding="UTF-8" standalone="no"?>
<svg
   width="1088"
   height="687.962"
   viewBox="0 0 1088 687.962"
   version="1.1"
   id="svg1"
   sodipodi:docname="undraw_docusaurus_mountain.svg"
   xmlns:inkscape="http://www.inkscape.org/namespaces/inkscape"
   xmlns:sodipodi="http://sodipodi.sourceforge.net/DTD/sodipodi-0.dtd"
   xmlns="http://www.w3.org/2000/svg"
   xmlns:svg="http://www.w3.org/2000/svg">
  <defs
     id="defs1" />
  <sodipodi:namedview
     id="namedview1"
     pagecolor="#ffffff"
     bordercolor="#000000"
     borderopacity="0.25"
     inkscape:showpageshadow="2"
     inkscape:pageopacity="0.0"
     inkscape:pagecheckerboard="0"
     inkscape:deskcolor="#d1d1d1" />
  <title
     id="title1">Easy to Use</title>
  <g
     id="Group_11"
     data-name="Group 11">
    <path
       id="Path_83"
       data-name="Path 83"
       d="m 1017.81,560.461 c -5.27,45.15 -16.22,81.4 -31.25,110.31 -20,38.52 -54.21,54.04 -84.77,70.28 a 193.275,193.275 0 0 1 -27.46,11.94 c -55.61,19.3 -117.85,14.18 -166.74,3.99 A 657.282,657.282 0 0 0 603.5,743.821 q -14.97,-0.675 -29.97,-0.67 c -15.42,0.02 -293.07,5.29 -360.67,-131.57 -16.69,-33.76 -28.13,-75 -32.24,-125.27 -11.63,-142.12 52.29,-235.46 134.74,-296.47 155.97,-115.41 369.76,-110.57 523.43,7.88 102.36,78.9 198.2,198.31 179.02,362.74 z"
       transform="translate(-56,-106.019)"
       fill="#3f3d56" />
    <path
       id="Path_84"
       data-name="Path 84"
       d="m 986.56,670.771 c -20,38.52 -47.21,64.04 -77.77,80.28 a 193.272,193.272 0 0 1 -27.46,11.94 c -55.61,19.3 -117.85,14.18 -166.74,3.99 A 657.3,657.3 0 0 0 610.5,753.821 q -14.97,-0.675 -29.97,-0.67 -23.13,0.03 -46.25,1.72 c -100.17,7.36 -253.82,-6.43 -321.42,-143.29 L 382,283.981 444.95,445.6 l 20.09,51.59 55.37,-75.98 28.59,-39.229 130.2,149.27 36.8,-81.27 254.78,207.919 14.21,11.59 z"
       transform="translate(-56,-106.019)"
       fill="#f2f2f2" />
    <path
       id="Path_85"
       data-name="Path 85"
       d="m 302,282.962 26,-57 36,83 -31,-60 z"
       opacity="0.1" />
    <path
       id="Path_86"
       data-name="Path 86"
       d="m 610.5,753.821 q -14.97,-0.675 -29.97,-0.67 L 465.04,497.191 Z"
       transform="translate(-56,-106.019)"
       opacity="0.1" />
    <path
       id="Path_87"
       data-name="Path 87"
       d="M 464.411,315.191 493,292.962 l 130,150 -132,-128 z"
       opacity="0.1" />
    <path
       id="Path_88"
       data-name="Path 88"
       d="m 908.79,751.051 a 193.265,193.265 0 0 1 -27.46,11.94 L 679.2,531.251 Z"
       transform="translate(-56,-106.019)"
       opacity="0.1" />
    <circle
       id="Ellipse_11"
       data-name="Ellipse 11"
       cx="3"
       cy="3"
       r="3"
       transform="translate(479,98.962)"
       fill="#f2f2f2" />
    <circle
       id="Ellipse_12"
       data-name="Ellipse 12"
       cx="3"
       cy="3"
       r="3"
       transform="translate(396,201.962)"
       fill="#f2f2f2" />
    <circle
       id="Ellipse_13"
       data-name="Ellipse 13"
       cx="2"
       cy="2"
       r="2"
       transform="translate(600,220.962)"
       fill="#f2f2f2" />
    <circle
       id="Ellipse_14"
       data-name="Ellipse 14"
       cx="2"
       cy="2"
       r="2"
       transform="translate(180,265.962)"
       fill="#f2f2f2" />
    <circle
       id="Ellipse_15"
       data-name="Ellipse 15"
       cx="2"
       cy="2"
       r="2"
       transform="translate(612,96.962)"
       fill="#f2f2f2" />
    <circle
       id="Ellipse_16"
       data-name="Ellipse 16"
       cx="2"
       cy="2"
       r="2"
       transform="translate(736,192.962)"
       fill="#f2f2f2" />
    <circle
       id="Ellipse_17"
       data-name="Ellipse 17"
       cx="2"
       cy="2"
       r="2"
       transform="translate(858,344.962)"
       fill="#f2f2f2" />
    <path
       id="Path_89"
       data-name="Path 89"
       d="m 306,121.222 h -2.76 v -2.76 h -1.48 v 2.76 H 299 v 1.478 h 2.76 v 2.759 h 1.48 V 122.7 H 306 Z"
       fill="#f2f2f2" />
    <path
       id="Path_90"
       data-name="Path 90"
       d="m 848,424.222 h -2.76 v -2.76 h -1.48 v 2.76 H 841 v 1.478 h 2.76 v 2.759 h 1.48 V 425.7 H 848 Z"
       fill="#f2f2f2" />
    <path
       id="Path_91"
       data-name="Path 91"
       d="m 1144,719.981 c 0,16.569 -243.557,74 -544,74 -300.443,0 -544,-57.431 -544,-74 0,-16.569 243.557,14 544,14 300.443,0 544,-30.568 544,-14 z"
       transform="translate(-56,-106.019)"
       fill="#3f3d56" />
    <path
       id="Path_92"
       data-name="Path 92"
       d="m 1144,719.981 c 0,16.569 -243.557,74 -544,74 -300.443,0 -544,-57.431 -544,-74 0,-16.569 243.557,14 544,14 300.443,0 544,-30.568 544,-14 z"
       transform="translate(-56,-106.019)"
       opacity="0.1" />
    <ellipse
       id="Ellipse_18"
       data-name="Ellipse 18"
       cx="544"
       cy="30"
       rx="544"
       ry="30"
       transform="translate(0,583.962)"
       fill="#3f3d56" />
    <path
       id="Path_93"
       data-name="Path 93"
       d="m 624,677.981 c 0,33.137 -14.775,24 -33,24 -18.225,0 -33,9.137 -33,-24 0,-33.137 33,-96 33,-96 0,0 33,62.863 33,96 z"
       transform="translate(-56,-106.019)"
       fill="#ff6584" />
    <path
       id="Path_94"
       data-name="Path 94"
       d="m 606,690.66 c 0,15.062 -6.716,10.909 -15,10.909 -8.284,0 -15,4.153 -15,-10.909 0,-15.062 15,-43.636 15,-43.636 0,0 15,28.576 15,43.636 z"
       transform="translate(-56,-106.019)"
       opacity="0.1" />
    <rect
       id="Rectangle_97"
       data-name="Rectangle 97"
       width="92"
       height="18"
       rx="9"
       transform="translate(489,604.962)"
       fill="#2f2e41"
       x="0"
       y="0" />
    <rect
       id="Rectangle_98"
       data-name="Rectangle 98"
       width="92"
       height="18"
       rx="9"
       transform="translate(489,586.962)"
       fill="#2f2e41"
       x="0"
       y="0" />
    <path
       id="Path_95"
       data-name="Path 95"
       d="m 193,596.547 c 0,55.343 34.719,100.126 77.626,100.126"
       transform="translate(-56,-106.019)"
       fill="#3f3d56" />
    <path
       id="Path_96"
       data-name="Path 96"
       d="m 270.626,696.673 c 0,-55.965 38.745,-101.251 86.626,-101.251"
       transform="translate(-56,-106.019)"
       fill="#6c63ff" />
    <path
       id="Path_97"
       data-name="Path 97"
       d="m 221.125,601.564 c 0,52.57 22.14,95.109 49.5,95.109"
       transform="translate(-56,-106.019)"
       fill="#6c63ff" />
    <path
       id="Path_98"
       data-name="Path 98"
       d="m 270.626,696.673 c 0,-71.511 44.783,-129.377 100.126,-129.377"
       transform="translate(-56,-106.019)"
       fill="#3f3d56" />
    <path
       id="Path_99"
       data-name="Path 99"
       d="m 254.3,697.379 c 0,0 11.009,-0.339 14.326,-2.7 3.317,-2.361 16.934,-5.183 17.757,-1.395 0.823,3.788 16.544,18.844 4.115,18.945 -12.429,0.101 -28.879,-1.936 -32.19,-3.953 -3.311,-2.017 -4.008,-10.897 -4.008,-10.897 z"
       transform="translate(-56,-106.019)"
       fill="#a8a8a8" />
    <path
       id="Path_100"
       data-name="Path 100"
       d="m 290.716,710.909 c -12.429,0.1 -28.879,-1.936 -32.19,-3.953 -2.522,-1.536 -3.527,-7.048 -3.863,-9.591 l -0.368,0.014 c 0,0 0.7,8.879 4.009,10.9 3.309,2.021 19.761,4.053 32.19,3.953 3.588,-0.029 4.827,-1.305 4.759,-3.2 -0.498,1.142 -1.867,1.855 -4.537,1.877 z"
       transform="translate(-56,-106.019)"
       opacity="0.2" />
    <path
       id="Path_101"
       data-name="Path 101"
       d="m 777.429,633.081 c 0,38.029 23.857,68.8 53.341,68.8"
       transform="translate(-56,-106.019)"
       fill="#3f3d56" />
    <path
       id="Path_102"
       data-name="Path 102"
       d="m 830.769,701.882 c 0,-38.456 26.623,-69.575 59.525,-69.575"
       transform="translate(-56,-106.019)"
       fill="#6c63ff" />
    <path
       id="Path_103"
       data-name="Path 103"
       d="m 796.755,636.528 c 0,36.124 15.213,65.354 34.014,65.354"
       transform="translate(-56,-106.019)"
       fill="#6c63ff" />
    <path
       id="Path_104"
       data-name="Path 104"
       d="m 830.769,701.882 c 0,-49.139 30.773,-88.9 68.8,-88.9"
       transform="translate(-56,-106.019)"
       fill="#3f3d56" />
    <path
       id="Path_105"
       data-name="Path 105"
       d="m 819.548,702.367 c 0,0 7.565,-0.233 9.844,-1.856 2.279,-1.623 11.636,-3.562 12.2,-0.958 0.564,2.604 11.368,12.949 2.828,13.018 -8.54,0.069 -19.844,-1.33 -22.119,-2.716 -2.275,-1.386 -2.753,-7.488 -2.753,-7.488 z"
       transform="translate(-56,-106.019)"
       fill="#a8a8a8" />
    <path
       id="Path_106"
       data-name="Path 106"
       d="m 844.574,711.664 c -8.54,0.069 -19.844,-1.33 -22.119,-2.716 -1.733,-1.056 -2.423,-4.843 -2.654,-6.59 l -0.253,0.01 c 0,0 0.479,6.1 2.755,7.487 2.276,1.387 13.579,2.785 22.119,2.716 2.465,-0.02 3.317,-0.9 3.27,-2.2 -0.343,0.788 -1.283,1.278 -3.118,1.293 z"
       transform="translate(-56,-106.019)"
       opacity="0.2" />
    <path
       id="Path_107"
       data-name="Path 107"
       d="m 949.813,724.718 c 0,0 11.36,-1.729 14.5,-4.591 3.14,-2.862 16.89,-7.488 18.217,-3.667 1.327,3.821 19.494,17.447 6.633,19.107 -12.861,1.66 -30.153,1.609 -33.835,-0.065 -3.682,-1.674 -5.515,-10.784 -5.515,-10.784 z"
       transform="translate(-56,-106.019)"
       fill="#a8a8a8" />
    <path
       id="Path_108"
       data-name="Path 108"
       d="m 989.228,734.173 c -12.86,1.659 -30.153,1.609 -33.835,-0.065 -2.8,-1.275 -4.535,-6.858 -5.2,-9.45 l -0.379,0.061 c 0,0 1.833,9.109 5.516,10.783 3.683,1.674 20.975,1.725 33.835,0.065 3.712,-0.479 4.836,-1.956 4.529,-3.906 -0.375,1.246 -1.703,2.156 -4.466,2.512 z"
       transform="translate(-56,-106.019)"
       opacity="0.2" />
    <path
       id="Path_109"
       data-name="Path 109"
       d="m 670.26,723.9 c 0,0 9.587,-1.459 12.237,-3.875 2.65,-2.416 14.255,-6.32 15.374,-3.095 1.119,3.225 16.452,14.725 5.6,16.125 -10.852,1.4 -25.448,1.358 -28.555,-0.055 -3.107,-1.413 -4.656,-9.1 -4.656,-9.1 z"
       transform="translate(-56,-106.019)"
       fill="#a8a8a8" />
    <path
       id="Path_110"
       data-name="Path 110"
       d="m 703.524,731.875 c -10.853,1.4 -25.448,1.358 -28.555,-0.055 -2.367,-1.076 -3.827,-5.788 -4.39,-7.976 l -0.32,0.051 c 0,0 1.547,7.687 4.655,9.1 3.108,1.413 17.7,1.456 28.555,0.055 3.133,-0.4 4.081,-1.651 3.822,-3.3 -0.314,1.057 -1.435,1.825 -3.767,2.125 z"
       transform="translate(-56,-106.019)"
       opacity="0.2" />
    <path
       id="Path_111"
       data-name="Path 111"
       d="m 178.389,719.109 c 0,0 7.463,-1.136 9.527,-3.016 2.064,-1.88 11.1,-4.92 11.969,-2.409 0.869,2.511 12.808,11.463 4.358,12.553 -8.45,1.09 -19.811,1.057 -22.23,-0.043 -2.419,-1.1 -3.624,-7.085 -3.624,-7.085 z"
       transform="translate(-56,-106.019)"
       fill="#a8a8a8" />
    <path
       id="Path_112"
       data-name="Path 112"
       d="m 204.285,725.321 c -8.449,1.09 -19.811,1.057 -22.23,-0.043 -1.842,-0.838 -2.979,-4.506 -3.417,-6.209 l -0.249,0.04 c 0,0 1.2,5.984 3.624,7.085 2.424,1.101 13.781,1.133 22.23,0.043 2.439,-0.315 3.177,-1.285 2.976,-2.566 -0.246,0.818 -1.119,1.416 -2.934,1.65 z"
       transform="translate(-56,-106.019)"
       opacity="0.2" />
    <path
       id="Path_113"
       data-name="Path 113"
       d="m 439.7,707.337 c 0,30.22 -42.124,20.873 -93.7,20.873 -51.576,0 -93.074,9.347 -93.074,-20.873 0,-30.22 42.118,-36.793 93.694,-36.793 51.576,0 93.08,6.573 93.08,36.793 z"
       transform="translate(-56,-106.019)"
       opacity="0.1" />
    <path
       id="Path_114"
       data-name="Path 114"
       d="m 439.7,699.9 c 0,30.22 -42.124,20.873 -93.7,20.873 -51.576,0 -93.074,9.347 -93.074,-20.873 0,-30.22 42.114,-36.8 93.69,-36.8 51.576,0 93.084,6.576 93.084,36.8 z"
       transform="translate(-56,-106.019)"
       fill="#3f3d56" />
  </g>
  <g
     id="docusaurus_keytar"
     transform="translate(255.271,437.733)">
    <path
       id="Path_40"
       data-name="Path 40"
       d="m 99,52 h 91.791 V 89.153 H 99 Z"
       transform="translate(5.904,-14.001)"
       fill="#ffffff"
       fill-rule="evenodd" />
    <path
       id="Path_41"
       data-name="Path 41"
       d="M 24.855,163.927 A 21.828,21.828 0 0 1 5.947,153 21.829,21.829 0 0 0 24.855,185.782 H 46.71 v -21.855 z"
       transform="translate(-3,-4.634)"
       fill="#3ecc5f"
       fill-rule="evenodd" />
    <path
       id="Path_42"
       data-name="Path 42"
       d="m 121.861,61.1 76.514,-4.782 V 45.39 A 21.854,21.854 0 0 0 176.52,23.535 H 78.173 L 75.441,18.8 a 3.154,3.154 0 0 0 -5.464,0 L 67.245,23.532 64.513,18.8 a 3.154,3.154 0 0 0 -5.464,0 L 56.317,23.532 53.586,18.8 a 3.154,3.154 0 0 0 -5.464,0 l -2.732,4.735 c -0.024,0 -0.046,0 -0.071,0 L 40.793,19.01 a 3.153,3.153 0 0 0 -5.276,1.414 l -1.5,5.577 -5.674,-1.521 a 3.154,3.154 0 0 0 -3.863,3.864 l 1.52,5.679 -5.575,1.494 a 3.155,3.155 0 0 0 -1.416,5.278 l 4.526,4.526 c 0,0.023 0,0.046 0,0.07 L 18.8,48.122 a 3.154,3.154 0 0 0 0,5.464 l 4.732,2.732 -4.732,2.732 a 3.154,3.154 0 0 0 0,5.464 l 4.732,2.732 -4.732,2.731 a 3.154,3.154 0 0 0 0,5.464 L 23.532,78.173 18.8,80.9 a 3.154,3.154 0 0 0 0,5.464 L 23.535,89.1 18.8,91.832 a 3.154,3.154 0 0 0 0,5.464 l 4.732,2.732 -4.732,2.732 a 3.154,3.154 0 0 0 0,5.464 l 4.732,2.732 -4.732,2.731 a 3.154,3.154 0 0 0 0,5.464 l 4.732,2.732 -4.732,2.732 a 3.154,3.154 0 0 0 0,5.464 l 4.732,2.732 -4.732,2.731 a 3.154,3.154 0 0 0 0,5.464 l 4.732,2.732 -4.732,2.731 a 3.154,3.154 0 0 0 0,5.464 l 4.732,2.732 -4.732,2.735 a 3.154,3.154 0 0 0 0,5.464 l 4.732,2.732 -4.732,2.728 a 3.154,3.154 0 0 0 0,5.464 l 4.732,2.732 A 21.854,21.854 0 0 0 45.39,198.375 H 176.52 A 21.854,21.854 0 0 0 198.375,176.52 V 89.1 l -76.514,-4.782 a 11.632,11.632 0 0 1 0,-23.219"
       transform="translate(-1.681,-17.226)"
       fill="#3ecc5f"
       fill-rule="evenodd" />
    <path
       id="Path_43"
       data-name="Path 43"
       d="m 143,186.71 h 32.782 V 143 H 143 Z"
       transform="translate(9.984,-5.561)"
       fill="#3ecc5f"
       fill-rule="evenodd" />
    <path
       id="Path_44"
       data-name="Path 44"
       d="m 196.71,159.855 a 5.438,5.438 0 0 0 -0.7,0.07 c -0.042,-0.164 -0.081,-0.329 -0.127,-0.493 a 5.457,5.457 0 1 0 -5.4,-9.372 q -0.181,-0.185 -0.366,-0.367 a 5.454,5.454 0 1 0 -9.384,-5.4 c -0.162,-0.046 -0.325,-0.084 -0.486,-0.126 a 5.467,5.467 0 1 0 -10.788,0 c -0.162,0.042 -0.325,0.08 -0.486,0.126 a 5.457,5.457 0 1 0 -9.384,5.4 21.843,21.843 0 1 0 36.421,21.02 5.452,5.452 0 1 0 0.7,-10.858"
       transform="translate(10.912,-6.025)"
       fill="#44d860"
       fill-rule="evenodd" />
    <path
       id="Path_45"
       data-name="Path 45"
       d="m 153,124.855 h 32.782 V 103 H 153 Z"
       transform="translate(10.912,-9.271)"
       fill="#3ecc5f"
       fill-rule="evenodd" />
    <path
       id="Path_46"
       data-name="Path 46"
       d="m 194.855,116.765 a 2.732,2.732 0 1 0 0,-5.464 2.811,2.811 0 0 0 -0.349,0.035 c -0.022,-0.082 -0.04,-0.164 -0.063,-0.246 a 2.733,2.733 0 0 0 -1.052,-5.253 2.7,2.7 0 0 0 -1.648,0.566 q -0.09,-0.093 -0.184,-0.184 a 2.7,2.7 0 0 0 0.553,-1.633 2.732,2.732 0 0 0 -5.245,-1.07 10.928,10.928 0 1 0 0,21.031 2.732,2.732 0 0 0 5.245,-1.07 2.7,2.7 0 0 0 -0.553,-1.633 q 0.093,-0.09 0.184,-0.184 a 2.7,2.7 0 0 0 1.648,0.566 2.732,2.732 0 0 0 1.052,-5.253 c 0.023,-0.081 0.042,-0.164 0.063,-0.246 a 2.814,2.814 0 0 0 0.349,0.035"
       transform="translate(12.767,-9.377)"
       fill="#44d860"
       fill-rule="evenodd" />
    <path
       id="Path_47"
       data-name="Path 47"
       d="m 65.087,56.891 a 2.732,2.732 0 0 1 -2.732,-2.732 8.2,8.2 0 0 0 -16.391,0 2.732,2.732 0 0 1 -5.464,0 13.6595,13.6595 0 0 1 27.319,0 2.732,2.732 0 0 1 -2.732,2.732"
       transform="translate(0.478,-15.068)"
       fill-rule="evenodd" />
    <path
       id="Path_48"
       data-name="Path 48"
       d="m 103,191.347 h 65.565 A 21.854,21.854 0 0 0 190.42,169.492 V 93 H 124.855 A 21.854,21.854 0 0 0 103,114.855 Z"
       transform="translate(6.275,-10.199)"
       fill="#ffff50"
       fill-rule="evenodd" />
    <path
       id="Path_49"
       data-name="Path 49"
       d="m 173.216,129.787 h -54.681 a 1.093,1.093 0 1 1 0,-2.185 h 54.681 a 1.093,1.093 0 0 1 0,2.185 m 0,21.855 h -54.681 a 1.093,1.093 0 1 1 0,-2.186 h 54.681 a 1.093,1.093 0 0 1 0,2.186 m 0,21.855 h -54.681 a 1.093,1.093 0 1 1 0,-2.185 h 54.681 a 1.093,1.093 0 0 1 0,2.185 m 0,-54.434 h -54.681 a 1.093,1.093 0 1 1 0,-2.185 h 54.681 a 1.093,1.093 0 0 1 0,2.185 m 0,21.652 h -54.681 a 1.093,1.093 0 1 1 0,-2.186 h 54.681 a 1.093,1.093 0 0 1 0,2.186 m 0,21.855 h -54.681 a 1.093,1.093 0 1 1 0,-2.186 h 54.681 a 1.093,1.093 0 0 1 0,2.186 M 189.585,61.611 c -0.013,0 -0.024,-0.007 -0.037,-0.005 -3.377,0.115 -4.974,3.492 -6.384,6.472 -1.471,3.114 -2.608,5.139 -4.473,5.078 -2.064,-0.074 -3.244,-2.406 -4.494,-4.874 -1.436,-2.835 -3.075,-6.049 -6.516,-5.929 -3.329,0.114 -4.932,3.053 -6.346,5.646 -1.5,2.762 -2.529,4.442 -4.5,4.364 -2.106,-0.076 -3.225,-1.972 -4.52,-4.167 -1.444,-2.443 -3.112,-5.191 -6.487,-5.1 -3.272,0.113 -4.879,2.606 -6.3,4.808 -1.5,2.328 -2.552,3.746 -4.551,3.662 -2.156,-0.076 -3.27,-1.65 -4.558,-3.472 -1.447,-2.047 -3.077,-4.363 -6.442,-4.251 -3.2,0.109 -4.807,2.153 -6.224,3.954 -1.346,1.709 -2.4,3.062 -4.621,2.977 a 1.0937135,1.0937135 0 0 0 -0.079,2.186 c 3.3,0.11 4.967,-1.967 6.417,-3.81 1.286,-1.635 2.4,-3.045 4.582,-3.12 2.1,-0.09 3.091,1.218 4.584,3.327 1.417,2 3.026,4.277 6.263,4.394 3.391,0.114 5.022,-2.42 6.467,-4.663 1.292,-2 2.406,-3.734 4.535,-3.807 1.959,-0.073 3.026,1.475 4.529,4.022 1.417,2.4 3.023,5.121 6.324,5.241 3.415,0.118 5.064,-2.863 6.5,-5.5 1.245,-2.282 2.419,-4.437 4.5,-4.509 1.959,-0.046 2.981,1.743 4.492,4.732 1.412,2.79 3.013,5.95 6.365,6.071 h 0.185 c 3.348,0 4.937,-3.36 6.343,-6.331 1.245,-2.634 2.423,-5.114 4.444,-5.216 z"
       transform="translate(7.109,-13.11)"
       fill-rule="evenodd" />
    <path
       id="Path_50"
       data-name="Path 50"
       d="m 83,186.71 h 43.71 V 143 H 83 Z"
       transform="translate(4.42,-5.561)"
       fill="#3ecc5f"
       fill-rule="evenodd" />
    <g
       id="Group_8"
       data-name="Group 8"
       transform="matrix(0.966,-0.259,0.259,0.966,109.327,91.085)">
      <rect
         id="Rectangle_3"
         data-name="Rectangle 3"
         width="92.361"
         height="36.462002"
         rx="2"
         fill="#d8d8d8"
         x="0"
         y="0" />
      <g
         id="Group_2"
         data-name="Group 2"
         transform="translate(1.531,23.03)">
        <rect
           id="Rectangle_4"
           data-name="Rectangle 4"
           width="5.336"
           height="5.336"
           rx="1"
           transform="translate(16.797)"
           fill="#4a4a4a"
           x="0"
           y="0" />
        <rect
           id="Rectangle_5"
           data-name="Rectangle 5"
           width="5.336"
           height="5.336"
           rx="1"
           transform="translate(23.12)"
           fill="#4a4a4a"
           x="0"
           y="0" />
        <rect
           id="Rectangle_6"
           data-name="Rectangle 6"
           width="5.336"
           height="5.336"
           rx="1"
           transform="translate(29.444)"
           fill="#4a4a4a"
           x="0"
           y="0" />
        <rect
           id="Rectangle_7"
           data-name="Rectangle 7"
           width="5.336"
           height="5.336"
           rx="1"
           transform="translate(35.768)"
           fill="#4a4a4a"
           x="0"
           y="0" />
        <rect
           id="Rectangle_8"
           data-name="Rectangle 8"
           width="5.336"
           height="5.336"
           rx="1"
           transform="translate(42.091)"
           fill="#4a4a4a"
           x="0"
           y="0" />
        <rect
           id="Rectangle_9"
           data-name="Rectangle 9"
           width="5.336"
           height="5.336"
           rx="1"
           transform="translate(48.415)"
           fill="#4a4a4a"
           x="0"
           y="0" />
        <rect
           id="Rectangle_10"
           data-name="Rectangle 10"
           width="5.336"
           height="5.336"
           rx="1"
           transform="translate(54.739)"
           fill="#4a4a4a"
           x="0"
           y="0" />
        <rect
           id="Rectangle_11"
           data-name="Rectangle 11"
           width="5.336"
           height="5.336"
           rx="1"
           transform="translate(61.063)"
           fill="#4a4a4a"
           x="0"
           y="0" />
        <rect
           id="Rectangle_12"
           data-name="Rectangle 12"
           width="5.336"
           height="5.336"
           rx="1"
           transform="translate(67.386)"
           fill="#4a4a4a"
           x="0"
           y="0" />
        <path
           id="Path_51"
           data-name="Path 51"
           d="m 1.093,0 h 13.425 a 1.093,1.093 0 0 1 1.093,1.093 v 3.15 A 1.093,1.093 0 0 1 14.518,5.336 H 1.093 A 1.093,1.093 0 0 1 0,4.243 V 1.093 A 1.093,1.093 0 0 1 1.093,0 Z M 75,0 h 13.426 a 1.093,1.093 0 0 1 1.093,1.093 v 3.15 A 1.093,1.093 0 0 1 88.426,5.336 H 75 A 1.093,1.093 0 0 1 73.907,4.243 V 1.093 A 1.093,1.093 0 0 1 75,0 Z"
           fill="#4a4a4a"
           fill-rule="evenodd" />
      </g>
      <g
         id="Group_3"
         data-name="Group 3"
         transform="translate(1.531,10.261)">
        <path
           id="Path_52"
           data-name="Path 52"
           d="M 1.093,0 H 6.218 A 1.093,1.093 0 0 1 7.31,1.093 V 4.242 A 1.093,1.093 0 0 1 6.218,5.335 H 1.093 A 1.093,1.093 0 0 1 0,4.242 V 1.093 A 1.093,1.093 0 0 1 1.093,0 Z"
           fill="#4a4a4a"
           fill-rule="evenodd" />
        <rect
           id="Rectangle_13"
           data-name="Rectangle 13"
           width="5.336"
           height="5.336"
           rx="1"
           transform="translate(8.299)"
           fill="#4a4a4a"
           x="0"
           y="0" />
        <rect
           id="Rectangle_14"
           data-name="Rectangle 14"
           width="5.336"
           height="5.336"
           rx="1"
           transform="translate(14.623)"
           fill="#4a4a4a"
           x="0"
           y="0" />
        <rect
           id="Rectangle_15"
           data-name="Rectangle 15"
           width="5.336"
           height="5.336"
           rx="1"
           transform="translate(20.947)"
           fill="#4a4a4a"
           x="0"
           y="0" />
        <rect
           id="Rectangle_16"
           data-name="Rectangle 16"
           width="5.336"
           height="5.336"
           rx="1"
           transform="translate(27.271)"
           fill="#4a4a4a"
           x="0"
           y="0" />
        <rect
           id="Rectangle_17"
           data-name="Rectangle 17"
           width="5.336"
           height="5.336"
           rx="1"
           transform="translate(33.594)"
           fill="#4a4a4a"
           x="0"
           y="0" />
        <rect
           id="Rectangle_18"
           data-name="Rectangle 18"
           width="5.336"
           height="5.336"
           rx="1"
           transform="translate(39.918)"
           fill="#4a4a4a"
           x="0"
           y="0" />
        <rect
           id="Rectangle_19"
           data-name="Rectangle 19"
           width="5.336"
           height="5.336"
           rx="1"
           transform="translate(46.242)"
           fill="#4a4a4a"
           x="0"
           y="0" />
        <rect
           id="Rectangle_20"
           data-name="Rectangle 20"
           width="5.336"
           height="5.336"
           rx="1"
           transform="translate(52.565)"
           fill="#4a4a4a"
           x="0"
           y="0" />
        <rect
           id="Rectangle_21"
           data-name="Rectangle 21"
           width="5.336"
           height="5.336"
           rx="1"
           transform="translate(58.888)"
           fill="#4a4a4a"
           x="0"
           y="0" />
        <rect
           id="Rectangle_22"
           data-name="Rectangle 22"
           width="5.336"
           height="5.336"
           rx="1"
           transform="translate(65.212)"
           fill="#4a4a4a"
           x="0"
           y="0" />
        <rect
           id="Rectangle_23"
           data-name="Rectangle 23"
           width="5.336"
           height="5.336"
           rx="1"
           transform="translate(71.536)"
           fill="#4a4a4a"
           x="0"
           y="0" />
        <rect
           id="Rectangle_24"
           data-name="Rectangle 24"
           width="5.336"
           height="5.336"
           rx="1"
           transform="translate(77.859)"
           fill="#4a4a4a"
           x="0"
           y="0" />
        <rect
           id="Rectangle_25"
           data-name="Rectangle 25"
           width="5.336"
           height="5.336"
           rx="1"
           transform="translate(84.183)"
           fill="#4a4a4a"
           x="0"
           y="0" />
      </g>
      <g
         id="Group_4"
         data-name="Group 4"
         transform="rotate(180,45.525,4.773)">
        <path
           id="Path_53"
           data-name="Path 53"
           d="m 1.093,0 h 5.126 a 1.093,1.093 0 0 1 1.093,1.093 v 3.15 A 1.093,1.093 0 0 1 6.219,5.336 H 1.093 A 1.093,1.093 0 0 1 0,4.243 V 1.093 A 1.093,1.093 0 0 1 1.093,0 Z"
           fill="#4a4a4a"
           fill-rule="evenodd" />
        <rect
           id="Rectangle_26"
           data-name="Rectangle 26"
           width="5.336"
           height="5.336"
           rx="1"
           transform="translate(8.299)"
           fill="#4a4a4a"
           x="0"
           y="0" />
        <rect
           id="Rectangle_27"
           data-name="Rectangle 27"
           width="5.336"
           height="5.336"
           rx="1"
           transform="translate(14.623)"
           fill="#4a4a4a"
           x="0"
           y="0" />
        <rect
           id="Rectangle_28"
           data-name="Rectangle 28"
           width="5.336"
           height="5.336"
           rx="1"
           transform="translate(20.947)"
           fill="#4a4a4a"
           x="0"
           y="0" />
        <rect
           id="Rectangle_29"
           data-name="Rectangle 29"
           width="5.336"
           height="5.336"
           rx="1"
           transform="translate(27.271)"
           fill="#4a4a4a"
           x="0"
           y="0" />
        <rect
           id="Rectangle_30"
           data-name="Rectangle 30"
           width="5.336"
           height="5.336"
           rx="1"
           transform="translate(33.594)"
           fill="#4a4a4a"
           x="0"
           y="0" />
        <rect
           id="Rectangle_31"
           data-name="Rectangle 31"
           width="5.336"
           height="5.336"
           rx="1"
           transform="translate(39.918)"
           fill="#4a4a4a"
           x="0"
           y="0" />
        <rect
           id="Rectangle_32"
           data-name="Rectangle 32"
           width="5.336"
           height="5.336"
           rx="1"
           transform="translate(46.242)"
           fill="#4a4a4a"
           x="0"
           y="0" />
        <rect
           id="Rectangle_33"
           data-name="Rectangle 33"
           width="5.336"
           height="5.336"
           rx="1"
           transform="translate(52.565)"
           fill="#4a4a4a"
           x="0"
           y="0" />
        <rect
           id="Rectangle_34"
           data-name="Rectangle 34"
           width="5.336"
           height="5.336"
           rx="1"
           transform="translate(58.889)"
           fill="#4a4a4a"
           x="0"
           y="0" />
        <rect
           id="Rectangle_35"
           data-name="Rectangle 35"
           width="5.336"
           height="5.336"
           rx="1"
           transform="translate(65.213)"
           fill="#4a4a4a"
           x="0"
           y="0" />
        <rect
           id="Rectangle_36"
           data-name="Rectangle 36"
           width="5.336"
           height="5.336"
           rx="1"
           transform="translate(71.537)"
           fill="#4a4a4a"
           x="0"
           y="0" />
        <rect
           id="Rectangle_37"
           data-name="Rectangle 37"
           width="5.336"
           height="5.336"
           rx="1"
           transform="translate(77.86)"
           fill="#4a4a4a"
           x="0"
           y="0" />
        <rect
           id="Rectangle_38"
           data-name="Rectangle 38"
           width="5.336"
           height="5.336"
           rx="1"
           transform="translate(84.183)"
           fill="#4a4a4a"
           x="0"
           y="0" />
        <rect
           id="Rectangle_39"
           data-name="Rectangle 39"
           width="5.336"
           height="5.336"
           rx="1"
           transform="translate(8.299)"
           fill="#4a4a4a"
           x="0"
           y="0" />
        <rect
           id="Rectangle_40"
           data-name="Rectangle 40"
           width="5.336"
           height="5.336"
           rx="1"
           transform="translate(14.623)"
           fill="#4a4a4a"
           x="0"
           y="0" />
        <rect
           id="Rectangle_41"
           data-name="Rectangle 41"
           width="5.336"
           height="5.336"
           rx="1"
           transform="translate(20.947)"
           fill="#4a4a4a"
           x="0"
           y="0" />
        <rect
           id="Rectangle_42"
           data-name="Rectangle 42"
           width="5.336"
           height="5.336"
           rx="1"
           transform="translate(27.271)"
           fill="#4a4a4a"
           x="0"
           y="0" />
        <rect
           id="Rectangle_43"
           data-name="Rectangle 43"
           width="5.336"
           height="5.336"
           rx="1"
           transform="translate(33.594)"
           fill="#4a4a4a"
           x="0"
           y="0" />
        <rect
           id="Rectangle_44"
           data-name="Rectangle 44"
           width="5.336"
           height="5.336"
           rx="1"
           transform="translate(39.918)"
           fill="#4a4a4a"
           x="0"
           y="0" />
        <rect
           id="Rectangle_45"
           data-name="Rectangle 45"
           width="5.336"
           height="5.336"
           rx="1"
           transform="translate(46.242)"
           fill="#4a4a4a"
           x="0"
           y="0" />
        <rect
           id="Rectangle_46"
           data-name="Rectangle 46"
           width="5.336"
           height="5.336"
           rx="1"
           transform="translate(52.565)"
           fill="#4a4a4a"
           x="0"
           y="0" />
        <rect
           id="Rectangle_47"
           data-name="Rectangle 47"
           width="5.336"
           height="5.336"
           rx="1"
           transform="translate(58.889)"
           fill="#4a4a4a"
           x="0"
           y="0" />
        <rect
           id="Rectangle_48"
           data-name="Rectangle 48"
           width="5.336"
           height="5.336"
           rx="1"
           transform="translate(65.213)"
           fill="#4a4a4a"
           x="0"
           y="0" />
        <rect
           id="Rectangle_49"
           data-name="Rectangle 49"
           width="5.336"
           height="5.336"
           rx="1"
           transform="translate(71.537)"
           fill="#4a4a4a"
           x="0"
           y="0" />
        <rect
           id="Rectangle_50"
           data-name="Rectangle 50"
           width="5.336"
           height="5.336"
           rx="1"
           transform="translate(77.86)"
           fill="#4a4a4a"
           x="0"
           y="0" />
        <rect
           id="Rectangle_51"
           data-name="Rectangle 51"
           width="5.336"
           height="5.336"
           rx="1"
           transform="translate(84.183)"
           fill="#4a4a4a"
           x="0"
           y="0" />
      </g>
      <g
         id="Group_6"
         data-name="Group 6"
         transform="translate(1.531,16.584)">
        <path
           id="Path_54"
           data-name="Path 54"
           d="m 1.093,0 h 7.3 a 1.093,1.093 0 0 1 1.092,1.093 v 3.15 A 1.093,1.093 0 0 1 8.392,5.336 h -7.3 A 1.093,1.093 0 0 1 0,4.243 V 1.094 A 1.093,1.093 0 0 1 1.093,0 Z"
           fill="#4a4a4a"
           fill-rule="evenodd" />
        <g
           id="Group_5"
           data-name="Group 5"
           transform="translate(10.671)">
          <rect
             id="Rectangle_52"
             data-name="Rectangle 52"
             width="5.336"
             height="5.336"
             rx="1"
             fill="#4a4a4a"
             x="0"
             y="0" />
          <rect
             id="Rectangle_53"
             data-name="Rectangle 53"
             width="5.336"
             height="5.336"
             rx="1"
             transform="translate(6.324)"
             fill="#4a4a4a"
             x="0"
             y="0" />
          <rect
             id="Rectangle_54"
             data-name="Rectangle 54"
             width="5.336"
             height="5.336"
             rx="1"
             transform="translate(12.647)"
             fill="#4a4a4a"
             x="0"
             y="0" />
          <rect
             id="Rectangle_55"
             data-name="Rectangle 55"
             width="5.336"
             height="5.336"
             rx="1"
             transform="translate(18.971)"
             fill="#4a4a4a"
             x="0"
             y="0" />
          <rect
             id="Rectangle_56"
             data-name="Rectangle 56"
             width="5.336"
             height="5.336"
             rx="1"
             transform="translate(25.295)"
             fill="#4a4a4a"
             x="0"
             y="0" />
          <rect
             id="Rectangle_57"
             data-name="Rectangle 57"
             width="5.336"
             height="5.336"
             rx="1"
             transform="translate(31.619)"
             fill="#4a4a4a"
             x="0"
             y="0" />
          <rect
             id="Rectangle_58"
             data-name="Rectangle 58"
             width="5.336"
             height="5.336"
             rx="1"
             transform="translate(37.942)"
             fill="#4a4a4a"
             x="0"
             y="0" />
          <rect
             id="Rectangle_59"
             data-name="Rectangle 59"
             width="5.336"
             height="5.336"
             rx="1"
             transform="translate(44.265)"
             fill="#4a4a4a"
             x="0"
             y="0" />
          <rect
             id="Rectangle_60"
             data-name="Rectangle 60"
             width="5.336"
             height="5.336"
             rx="1"
             transform="translate(50.589)"
             fill="#4a4a4a"
             x="0"
             y="0" />
          <rect
             id="Rectangle_61"
             data-name="Rectangle 61"
             width="5.336"
             height="5.336"
             rx="1"
             transform="translate(56.912)"
             fill="#4a4a4a"
             x="0"
             y="0" />
          <rect
             id="Rectangle_62"
             data-name="Rectangle 62"
             width="5.336"
             height="5.336"
             rx="1"
             transform="translate(63.236)"
             fill="#4a4a4a"
             x="0"
             y="0" />
        </g>
        <path
           id="Path_55"
           data-name="Path 55"
           d="M 1.094,0 H 8 a 1.093,1.093 0 0 1 1.091,1.093 v 3.15 A 1.093,1.093 0 0 1 8,5.336 H 1.093 A 1.093,1.093 0 0 1 0,4.243 V 1.094 A 1.093,1.093 0 0 1 1.093,0 Z"
           transform="translate(80.428)"
           fill="#4a4a4a"
           fill-rule="evenodd" />
      </g>
      <g
         id="Group_7"
         data-name="Group 7"
         transform="translate(1.531,29.627)">
        <rect
           id="Rectangle_63"
           data-name="Rectangle 63"
           width="5.336"
           height="5.336"
           rx="1"
           fill="#4a4a4a"
           x="0"
           y="0" />
        <rect
           id="Rectangle_64"
           data-name="Rectangle 64"
           width="5.336"
           height="5.336"
           rx="1"
           transform="translate(6.324)"
           fill="#4a4a4a"
           x="0"
           y="0" />
        <rect
           id="Rectangle_65"
           data-name="Rectangle 65"
           width="5.336"
           height="5.336"
           rx="1"
           transform="translate(12.647)"
           fill="#4a4a4a"
           x="0"
           y="0" />
        <rect
           id="Rectangle_66"
           data-name="Rectangle 66"
           width="5.336"
           height="5.336"
           rx="1"
           transform="translate(18.971)"
           fill="#4a4a4a"
           x="0"
           y="0" />
        <path
           id="Path_56"
           data-name="Path 56"
           d="m 1.093,0 h 30.422 a 1.093,1.093 0 0 1 1.093,1.093 V 4.244 A 1.093,1.093 0 0 1 31.515,5.337 H 1.093 A 1.093,1.093 0 0 1 0,4.244 V 1.093 A 1.093,1.093 0 0 1 1.093,0 Z m 33.594,0 h 3.942 a 1.093,1.093 0 0 1 1.093,1.093 V 4.244 A 1.093,1.093 0 0 1 38.629,5.337 H 34.687 A 1.093,1.093 0 0 1 33.594,4.244 V 1.093 A 1.093,1.093 0 0 1 34.687,0 Z"
           transform="translate(25.294)"
           fill="#4a4a4a"
           fill-rule="evenodd" />
        <rect
           id="Rectangle_67"
           data-name="Rectangle 67"
           width="5.336"
           height="5.336"
           rx="1"
           transform="translate(66.003)"
           fill="#4a4a4a"
           x="0"
           y="0" />
        <rect
           id="Rectangle_68"
           data-name="Rectangle 68"
           width="5.336"
           height="5.336"
           rx="1"
           transform="translate(72.327)"
           fill="#4a4a4a"
           x="0"
           y="0" />
        <rect
           id="Rectangle_69"
           data-name="Rectangle 69"
           width="5.336"
           height="5.336"
           rx="1"
           transform="translate(84.183)"
           fill="#4a4a4a"
           x="0"
           y="0" />
        <path
           id="Path_57"
           data-name="Path 57"
           d="M 5.336,0 V 1.18 A 1.093,1.093 0 0 1 4.243,2.273 H 1.093 A 1.093,1.093 0 0 1 0,1.18 V 0 Z"
           transform="rotate(180,41.795,1.1365)"
           fill="#4a4a4a" />
        <path
           id="Path_58"
           data-name="Path 58"
           d="M 5.336,0 V 1.18 A 1.093,1.093 0 0 1 4.243,2.273 H 1.093 A 1.093,1.093 0 0 1 0,1.18 V 0 Z"
           transform="translate(78.255,3.063)"
           fill="#4a4a4a" />
      </g>
      <rect
         id="Rectangle_70"
         data-name="Rectangle 70"
         width="88.927002"
         height="2.3710001"
         rx="1.085"
         transform="translate(1.925,1.17)"
         fill="#4a4a4a"
         x="0"
         y="0" />
      <rect
         id="Rectangle_71"
         data-name="Rectangle 71"
         width="4.9860001"
         height="1.581"
         rx="0.72299999"
         transform="translate(4.1,1.566)"
         fill="#d8d8d8"
         opacity="0.136"
         x="0"
         y="0" />
      <rect
         id="Rectangle_72"
         data-name="Rectangle 72"
         width="4.9860001"
         height="1.581"
         rx="0.72299999"
         transform="translate(10.923,1.566)"
         fill="#d8d8d8"
         opacity="0.136"
         x="0"
         y="0" />
      <rect
         id="Rectangle_73"
         data-name="Rectangle 73"
         width="4.9860001"
         height="1.581"
         rx="0.72299999"
         transform="translate(16.173,1.566)"
         fill="#d8d8d8"
         opacity="0.136"
         x="0"
         y="0" />
      <rect
         id="Rectangle_74"
         data-name="Rectangle 74"
         width="4.9860001"
         height="1.581"
         rx="0.72299999"
         transform="translate(21.421,1.566)"
         fill="#d8d8d8"
         opacity="0.136"
         x="0"
         y="0" />
      <rect
         id="Rectangle_75"
         data-name="Rectangle 75"
         width="4.9860001"
         height="1.581"
         rx="0.72299999"
         transform="translate(26.671,1.566)"
         fill="#d8d8d8"
         opacity="0.136"
         x="0"
         y="0" />
      <rect
         id="Rectangle_76"
         data-name="Rectangle 76"
         width="4.9860001"
         height="1.581"
         rx="0.72299999"
         transform="translate(33.232,1.566)"
         fill="#d8d8d8"
         opacity="0.136"
         x="0"
         y="0" />
      <rect
         id="Rectangle_77"
         data-name="Rectangle 77"
         width="4.9860001"
         height="1.581"
         rx="0.72299999"
         transform="translate(38.48,1.566)"
         fill="#d8d8d8"
         opacity="0.136"
         x="0"
         y="0" />
      <rect
         id="Rectangle_78"
         data-name="Rectangle 78"
         width="4.9860001"
         height="1.581"
         rx="0.72299999"
         transform="translate(43.73,1.566)"
         fill="#d8d8d8"
         opacity="0.136"
         x="0"
         y="0" />
      <rect
         id="Rectangle_79"
         data-name="Rectangle 79"
         width="4.9860001"
         height="1.581"
         rx="0.72299999"
         transform="translate(48.978,1.566)"
         fill="#d8d8d8"
         opacity="0.136"
         x="0"
         y="0" />
      <rect
         id="Rectangle_80"
         data-name="Rectangle 80"
         width="4.9860001"
         height="1.581"
         rx="0.72299999"
         transform="translate(55.54,1.566)"
         fill="#d8d8d8"
         opacity="0.136"
         x="0"
         y="0" />
      <rect
         id="Rectangle_81"
         data-name="Rectangle 81"
         width="4.9860001"
         height="1.581"
         rx="0.72299999"
         transform="translate(60.788,1.566)"
         fill="#d8d8d8"
         opacity="0.136"
         x="0"
         y="0" />
      <rect
         id="Rectangle_82"
         data-name="Rectangle 82"
         width="4.9860001"
         height="1.581"
         rx="0.72299999"
         transform="translate(66.038,1.566)"
         fill="#d8d8d8"
         opacity="0.136"
         x="0"
         y="0" />
      <rect
         id="Rectangle_83"
         data-name="Rectangle 83"
         width="4.9860001"
         height="1.581"
         rx="0.72299999"
         transform="translate(72.599,1.566)"
         fill="#d8d8d8"
         opacity="0.136"
         x="0"
         y="0" />
      <rect
         id="Rectangle_84"
         data-name="Rectangle 84"
         width="4.9860001"
         height="1.581"
         rx="0.72299999"
         transform="translate(77.847,1.566)"
         fill="#d8d8d8"
         opacity="0.136"
         x="0"
         y="0" />
      <rect
         id="Rectangle_85"
         data-name="Rectangle 85"
         width="4.9860001"
         height="1.581"
         rx="0.72299999"
         transform="translate(83.097,1.566)"
         fill="#d8d8d8"
         opacity="0.136"
         x="0"
         y="0" />
    </g>
    <path
       id="Path_59"
       data-name="Path 59"
       d="m 146.71,159.855 a 5.439,5.439 0 0 0 -0.7,0.07 c -0.042,-0.164 -0.081,-0.329 -0.127,-0.493 a 5.457,5.457 0 1 0 -5.4,-9.372 q -0.181,-0.185 -0.366,-0.367 a 5.454,5.454 0 1 0 -9.384,-5.4 c -0.162,-0.046 -0.325,-0.084 -0.486,-0.126 a 5.467,5.467 0 1 0 -10.788,0 c -0.162,0.042 -0.325,0.08 -0.486,0.126 a 5.457,5.457 0 1 0 -9.384,5.4 21.843,21.843 0 1 0 36.421,21.02 5.452,5.452 0 1 0 0.7,-10.858"
       transform="translate(6.275,-6.025)"
       fill="#44d860"
       fill-rule="evenodd" />
    <path
       id="Path_60"
       data-name="Path 60"
       d="m 83,124.855 h 43.71 V 103 H 83 Z"
       transform="translate(4.42,-9.271)"
       fill="#3ecc5f"
       fill-rule="evenodd" />
    <path
       id="Path_61"
       data-name="Path 61"
       d="m 134.855,116.765 a 2.732,2.732 0 1 0 0,-5.464 2.811,2.811 0 0 0 -0.349,0.035 c -0.022,-0.082 -0.04,-0.164 -0.063,-0.246 a 2.733,2.733 0 0 0 -1.052,-5.253 2.7,2.7 0 0 0 -1.648,0.566 q -0.09,-0.093 -0.184,-0.184 a 2.7,2.7 0 0 0 0.553,-1.633 2.732,2.732 0 0 0 -5.245,-1.07 10.928,10.928 0 1 0 0,21.031 2.732,2.732 0 0 0 5.245,-1.07 2.7,2.7 0 0 0 -0.553,-1.633 q 0.093,-0.09 0.184,-0.184 a 2.7,2.7 0 0 0 1.648,0.566 2.732,2.732 0 0 0 1.052,-5.253 c 0.023,-0.081 0.042,-0.164 0.063,-0.246 a 2.811,2.811 0 0 0 0.349,0.035"
       transform="translate(7.202,-9.377)"
       fill="#44d860"
       fill-rule="evenodd" />
    <path
       id="Path_62"
       data-name="Path 62"
       d="m 143.232,42.33 a 2.967,2.967 0 0 1 -0.535,-0.055 2.754,2.754 0 0 1 -0.514,-0.153 2.838,2.838 0 0 1 -0.471,-0.251 4.139,4.139 0 0 1 -0.415,-0.339 3.2,3.2 0 0 1 -0.338,-0.415 2.7,2.7 0 0 1 -0.459,-1.517 2.968,2.968 0 0 1 0.055,-0.535 3.152,3.152 0 0 1 0.152,-0.514 2.874,2.874 0 0 1 0.252,-0.47 2.633,2.633 0 0 1 0.753,-0.754 2.837,2.837 0 0 1 0.471,-0.251 2.753,2.753 0 0 1 0.514,-0.153 2.527,2.527 0 0 1 1.071,0 2.654,2.654 0 0 1 0.983,0.4 4.139,4.139 0 0 1 0.415,0.339 4.019,4.019 0 0 1 0.339,0.415 2.786,2.786 0 0 1 0.251,0.47 2.864,2.864 0 0 1 0.208,1.049 2.77,2.77 0 0 1 -0.8,1.934 4.139,4.139 0 0 1 -0.415,0.339 2.722,2.722 0 0 1 -1.519,0.459 m 21.855,-1.366 a 2.789,2.789 0 0 1 -1.935,-0.8 4.162,4.162 0 0 1 -0.338,-0.415 2.7,2.7 0 0 1 -0.459,-1.519 2.789,2.789 0 0 1 0.8,-1.934 4.139,4.139 0 0 1 0.415,-0.339 2.838,2.838 0 0 1 0.471,-0.251 2.752,2.752 0 0 1 0.514,-0.153 2.527,2.527 0 0 1 1.071,0 2.654,2.654 0 0 1 0.983,0.4 4.139,4.139 0 0 1 0.415,0.339 2.79,2.79 0 0 1 0.8,1.934 3.069,3.069 0 0 1 -0.055,0.535 2.779,2.779 0 0 1 -0.153,0.514 3.885,3.885 0 0 1 -0.251,0.47 4.02,4.02 0 0 1 -0.339,0.415 4.138,4.138 0 0 1 -0.415,0.339 2.722,2.722 0 0 1 -1.519,0.459"
       transform="translate(9.753,-15.532)"
       fill-rule="evenodd" />
  </g>
</svg>
