<?xml version="1.0" encoding="UTF-8" standalone="no"?>
<!-- Created with Inkscape (http://www.inkscape.org/) -->

<svg
   width="500mm"
   height="500mm"
   viewBox="0 0 500 500"
   version="1.1"
   id="svg26299"
   inkscape:version="1.1.2 (b8e25be833, 2022-02-05)"
   sodipodi:docname="DPW TEMPLATE.svg"
   xmlns:inkscape="http://www.inkscape.org/namespaces/inkscape"
   xmlns:sodipodi="http://sodipodi.sourceforge.net/DTD/sodipodi-0.dtd"
   xmlns:xlink="http://www.w3.org/1999/xlink"
   xmlns="http://www.w3.org/2000/svg"
   xmlns:svg="http://www.w3.org/2000/svg">
  <sodipodi:namedview
     id="namedview26301"
     pagecolor="#ffffff"
     bordercolor="#666666"
     borderopacity="1.0"
     inkscape:pageshadow="2"
     inkscape:pageopacity="0.0"
     inkscape:pagecheckerboard="true"
     inkscape:document-units="mm"
     showgrid="false"
     inkscape:zoom="0.20890502"
     inkscape:cx="1139.2737"
     inkscape:cy="1141.6672"
     inkscape:window-width="1366"
     inkscape:window-height="697"
     inkscape:window-x="-8"
     inkscape:window-y="-8"
     inkscape:window-maximized="1"
     inkscape:current-layer="layer2"
     showguides="true"
     inkscape:guide-bbox="true"
     inkscape:snap-global="false">
    <sodipodi:guide
       position="289.76786,235.52825"
       orientation="0,-1"
       id="guide7367" />
  </sodipodi:namedview>
  <defs
     id="defs26296">
    <inkscape:path-effect
       effect="fill_between_many"
       method="originald"
       linkedpaths="#text4140,0,1|#path1278,0,1"
       id="path-effect5468"
       join="true"
       close="true"
       autoreverse="true" />
  </defs>
  <g
     inkscape:groupmode="layer"
     id="layer3"
     inkscape:label="WILAYAH"
     style="display:inline">
    <g
       inkscape:groupmode="layer"
       id="layer2"
       inkscape:label="WILAYAH PATH"
       style="display:none">
      <path
         inkscape:original-d="M 0,0"
         inkscape:path-effect="#path-effect5468"
         d="M 0,0"
         id="path5470" />
      <path
         d="M 84.220938,411.32976 A 236.62248,236.62248 0 1 0 101.00537,77.116213 236.62248,236.62248 0 0 0 84.220938,411.32976 Z"
         style="display:inline;fill:none;stroke:#1b1918;stroke-width:1.15404;stroke-linecap:butt;stroke-linejoin:miter;stroke-miterlimit:4;stroke-dasharray:none"
         id="path9427" />
    </g>
    <text
       xml:space="preserve"
       style="font-weight:bold;font-size:50.8px;line-height:1.25;font-family:Calibri;-inkscape-font-specification:'Calibri Bold';letter-spacing:0px;word-spacing:0px;stroke-width:0.264583"
       id="text10114"
       transform="matrix(0.92619093,0,0,0.92619093,6.3717277,18.458669)"><textPath
         xlink:href="#path9427"
         id="textPath10913"><tspan
           id="tspan10112"
           style="stroke-width:0.264583">BANDAR LAMPUNG</tspan></textPath></text>
  </g>
  <g
     inkscape:groupmode="layer"
     id="layer4"
     inkscape:label="DPW"
     style="display:inline">
    <g
       inkscape:groupmode="layer"
       id="layer5"
       inkscape:label="DPW PATH"
       style="display:none">
      <path
         d="M 54.851305,244.28195 A 205.03691,205.03691 0 0 1 268.045,47.740034 205.03691,205.03691 0 1 1 54.851305,244.28195 Z"
         style="display:inline;fill:none;stroke:#1b1918;stroke-width:1;stroke-linecap:butt;stroke-linejoin:miter;stroke-miterlimit:4;stroke-dasharray:none"
         id="path5955" />
    </g>
    <text
       xml:space="preserve"
       style="font-weight:bold;font-size:50.8px;line-height:1.25;font-family:Calibri;-inkscape-font-specification:'Calibri Bold';letter-spacing:0px;word-spacing:0px;display:inline;stroke-width:0.264583"
       id="text6684"
       transform="matrix(0.92619093,0,0,0.92619093,6.3717277,18.458669)"><textPath
         xlink:href="#path5955"
         id="textPath7364"><tspan
           id="tspan6682"
           style="stroke-width:0.264583">DEWAN PENGURUS WILAYAH</tspan></textPath></text>
  </g>
  <g
     inkscape:label="Logo"
     inkscape:groupmode="layer"
     id="layer1"
     style="display:inline">
    <path
       d="M 247.0565,66.662148 A 185.76051,185.76051 0 0 1 432.81702,252.42266 185.76051,185.76051 0 1 1 247.0565,66.662148 Z"
       style="fill:#ffffff;fill-opacity:1;stroke:#1b1918;stroke-width:4.023;stroke-linecap:butt;stroke-linejoin:miter;stroke-dasharray:none"
       id="path1468" />
    <path
       d="m 247.0565,66.662148 c 102.59283,0 185.76052,83.167702 185.76052,185.760512 0,17.97218 -2.56072,35.34425 -7.32265,51.78173 -27.69559,-0.94883 -66.80761,-15.48521 -131.33357,-54.02171 -96.83204,-57.83035 -182.53112,-20.17927 -232.404385,15.24744 -0.297524,-4.29806 -0.460227,-8.63353 -0.460227,-13.00746 0,-102.59281 83.167712,-185.760512 185.760472,-185.760512 z"
       style="fill:#e30016;fill-rule:evenodd;stroke-width:1.34105"
       id="path38" />
    <g
       id="Layer1002"
       transform="matrix(1.3410471,0,0,1.3410471,-27.528796,-93.165473)"
       style="fill:#ffff00;stroke:#000000;stroke-opacity:1">
      <path
         d="m 129.4921,263.3803 5.584,15.3013 9.2221,10.7531 c -0.3993,5.681 -0.8504,13.4232 -1.3955,23.2284 h -28.4533 l -0.3333,-46.2687 z"
         style="fill:#ffff00;fill-rule:evenodd;stroke:#000000;stroke-opacity:1"
         id="path43" />
      <path
         d="m 190.8586,273.7358 c -2.6242,-0.4567 -4.6176,-0.6856 -5.9578,-0.6856 -1.6649,0 -3.1892,0.4405 -4.5803,1.3426 -1.6674,1.0826 -2.4986,2.4874 -2.4986,4.2158 0,1.3438 1.518,3.9196 4.5629,7.7459 3.0386,3.8175 4.5629,7.3315 4.5629,10.5319 0,4.6588 -2.246,8.4888 -6.7355,11.4615 -4.273,2.8719 -9.5614,4.3153 -15.8452,4.3153 -5.811,0 -10.0852,-0.3148 -12.8364,-0.9569 -0.3099,-1.2866 -0.871,-3.3734 -1.6313,-6.2739 -0.5077,-1.5579 -1.1772,-3.6446 -2.0631,-6.2303 3.8922,0.7429 6.5003,1.1137 7.8579,1.1137 5.2697,0 7.894,-1.5716 7.894,-4.7297 0,-2.2871 -0.9631,-4.4758 -3.1855,-6.1445 -3.3783,-2.5371 -6.9359,-4.818 -10.4125,-7.2457 -1.9237,-1.3426 -3.5749,-2.7599 -4.9487,-4.2493 l 12.4246,3.8163 3.2813,0.7914 8.2026,-18.2467 21.1062,-3.5874 z"
         style="fill:#ffff00;fill-rule:evenodd;stroke:#000000;stroke-opacity:1"
         id="path45" />
      <path
         d="m 263.7623,266.7324 c 0,9.3423 -3.2228,16.8277 -9.6522,22.4428 -6.4282,5.6151 -14.9568,8.4139 -25.5871,8.4139 l -0.6147,15.0741 h -29.2254 l -1.5218,-36.8085 c -0.265,-6.4389 -0.6458,-6.2966 -1.1995,-16.0053 l 4.3477,-0.919 6.2527,-23.433 c 4.7769,-0.4334 5.6865,-0.2281 12.6722,-0.2281 12.9845,0 23.3957,2.4124 31.2001,7.2506 8.892,5.5144 13.328,13.5741 13.328,24.2125 z m -22.0557,8.2623 c 0,-5.1254 -3.2962,-7.7055 -9.8687,-7.7055 -0.7976,0 -1.594,0.051 -2.409,0.1516 l -0.5064,17.3 c 8.5286,-0.2696 12.7841,-3.5072 12.7841,-9.7461 z"
         style="fill:#ffff00;fill-rule:evenodd;stroke:#000000;stroke-opacity:1"
         id="path47" />
      <path
         d="m 266.2098,228.8543 1.2182,47.3627 c 0.229,8.9131 0.8524,21.0614 1.3949,36.4462 h 22.3617 l 4.1623,-83.9843 c -10.7447,-1.2307 -19.2683,-1.2282 -29.1371,0.1754 z"
         style="fill:#ffff00;fill-rule:evenodd;stroke:#000000;stroke-opacity:1"
         id="path49" />
    </g>
    <path
       d="m 347.31051,182.91753 -25.18352,-1.23166 -5.74827,-28.19564 c 0,0 -26.55232,-56.115815 -89.23635,-53.37876 0,0 -53.37753,-1.369059 -77.19185,39.41716 -23.81447,40.78576 -13.96018,84.30877 -13.96018,84.30877 l -9.30688,9.58087 11.77053,16.42355 c 0,0 14.97171,-8.53403 30.38408,-14.23364 15.41213,-5.69996 126.18933,-34.49049 183.94715,-31.20563 0,0 4.653,-8.75933 3.2842,-13.41258 -1.36865,-4.65347 -8.75891,-8.07244 -8.75891,-8.07244 z m -49.27286,-39.00934 c -55.00357,-34.75189 -103.85139,-30.03112 -146.44568,14.78143 14.31644,-27.93121 38.14769,-43.78612 71.44333,-47.62917 33.29726,-0.36392 57.76344,11.31426 75.00235,32.84774 z"
       style="fill:#ffffff;fill-rule:evenodd;stroke:#000000;stroke-width:1.34105;stroke-opacity:1"
       id="path55" />
    <path
       d="m 243.83977,225.20732 -6.02211,22.99316 -41.88076,7.11723 -10.67554,24.08815 c 0,0 -21.89825,-6.29596 -29.01532,-6.29596 l -7.93833,-21.07696 c 0,0 35.85864,-16.6975 95.53206,-26.82562 z"
       style="fill:none;fill-opacity:1;fill-rule:evenodd;stroke:#000000;stroke-width:1.34105;stroke-opacity:1"
       id="path60" />
    <text
       x="124.4379"
       y="387.07104"
       id="text67"
       style="font-size:22.7682px;fill:#000000;stroke-width:1.89735"><tspan
         font-family="Impact"
         font-size="63.5613px"
         fill="#ffcb00"
         id="tspan65"
         style="fill:#000000;stroke-width:2.68442">NASIONAL</tspan></text>
    <path
       d="m 221.91673,147.92894 c 7.04235,-1.08066 13.89298,2.14699 17.70704,5.40737 3.82953,3.27334 7.26462,8.39226 8.05085,15.20759 1.54169,13.36074 -8.80707,24.45184 -20.47749,25.63654 -21.26222,2.15854 -33.87879,-22.09562 -20.458,-38.13643 4.01554,-4.79924 8.84315,-7.14297 15.1776,-8.11507 z m 10.43001,62.69325 h -0.89596 c -0.52556,-0.0405 -0.92922,-0.17639 -1.08949,-0.45211 l -2.3011,-6.12522 c -2.50841,0.0629 -4.66016,0.0253 -7.12017,0.01 l -2.44308,6.37802 c -1.82785,0.22302 -4.00935,-0.0456 -5.56791,-0.49925 -0.77606,-0.22655 -1.47891,-0.47491 -2.17011,-0.80984 -0.76184,-0.36899 -1.33417,-0.84407 -1.97844,-1.0942 -0.01,-0.0253 -0.0406,-0.0857 -0.0507,-0.0658 -0.006,0.0203 -0.0405,-0.0537 -0.0517,-0.0643 -0.55905,-0.55734 0.52212,0.47644 -0.12417,-0.12013 -0.74907,-0.69103 -0.38116,-0.97158 0.0837,-3.19961 0.21946,-1.0515 0.78663,-3.04846 0.75835,-4.01766 -0.89906,-0.61684 -2.03182,-1.13626 -2.99095,-1.77622 -1.05876,-0.70629 -1.70368,-1.26981 -2.72823,-1.97576 -0.99261,0.4288 -5.24683,4.06085 -5.70938,4.05174 -2.692,-1.13105 -6.35801,-4.93386 -7.06487,-8.18431 l 4.90846,-4.98909 c -0.26762,-0.74468 -1.14417,-2.22641 -1.52126,-3.02647 -0.34568,-0.73342 -1.0054,-2.77958 -1.35203,-3.26652 l -7.05554,0.42222 c -0.94316,-2.14967 -1.77434,-3.64068 -1.95204,-6.40389 -0.0684,-1.01021 -0.0847,-3.67984 0.51496,-4.27058 0.4359,-0.46378 6.2021,-1.4679 6.95807,-1.73541 0.14901,-3.46155 0.862,-5.30158 0.95654,-6.742 -0.90348,-0.3847 -2.18697,-1.16647 -3.08279,-1.66801 -0.96773,-0.54177 -2.15426,-1.10742 -3.13245,-1.76145 -0.18348,-1.6382 0.7611,-4.46812 1.33302,-5.72922 0.86428,-1.90551 1.89036,-2.97649 3.05546,-4.15107 1.15745,0.0822 5.91507,2.34774 7.02666,2.36127 1.08882,-1.4983 3.0965,-3.87493 4.32005,-4.84449 -0.12266,-0.60508 -1.25067,-2.50668 -1.64302,-3.2287 -0.53777,-0.98933 -1.35461,-2.28732 -1.76268,-3.3034 0.82364,-1.9676 5.8137,-5.87058 9.145,-5.87676 1.00376,1.0019 3.73403,5.12697 4.48605,5.7802 0.87329,-0.16878 2.06749,-0.70098 2.99589,-0.98477 3.05451,-0.93307 3.32794,-0.26964 3.46125,-1.52527 0.0355,-0.34009 0.0406,-0.72201 0.0598,-1.06763 l 0.46884,-5.65678 c 1.94024,-0.56904 3.17215,-1.03129 5.52018,-1.06535 1.56527,-0.0253 4.30531,0.42321 5.3694,1.15253 l 0.55242,7.37775 c 1.22703,0.2078 2.24489,0.445 3.32282,0.77285 0.96783,0.29447 2.25874,0.85278 3.09834,1.04532 0.7066,-0.94903 4.04179,-5.19199 4.35133,-5.83447 3.48254,0.17333 7.16334,3.06614 8.85197,5.21935 0.68891,0.87863 0.25749,0.99679 -0.86646,3.04082 -0.38318,0.69722 -2.01838,3.51771 -2.10034,4.14722 0.74978,0.90143 1.93287,1.92209 3.29844,3.6204 0.34009,0.42372 0.62839,0.92865 1.03823,1.28725 1.17382,-0.17385 6.44038,-2.51536 6.93283,-2.36184 0.99546,0.74573 2.40827,2.8912 3.03357,4.08189 0.87087,1.65792 1.39952,3.57001 1.44205,5.76206 l -6.2273,3.42437 c -0.01,0.8878 0.41511,2.29117 0.57451,3.30514 0.16423,1.04293 0.068,2.6632 0.47087,3.46179 1.35405,0.72444 5.8511,0.94756 6.85933,1.71437 0.61112,1.36989 0.54872,4.27795 0.25849,5.89354 -0.29701,1.65432 -0.96002,3.64416 -1.78949,4.72259 -1.82141,0.21289 -5.03881,-0.35631 -7.06491,-0.37557 -0.40041,1.08208 -0.78208,2.12969 -1.26592,3.21877 -1.7277,3.88888 -2.44875,2.18533 0.89298,5.57162 0.75541,0.76575 1.80946,1.68574 2.42635,2.48551 -0.67922,3.0336 -4.43749,7.36207 -7.08702,8.20172 -0.3776,-0.0253 -4.64996,-3.51142 -5.57364,-4.01963 -0.67311,0.24125 -3.75817,2.87881 -5.88132,3.67483 l 1.39593,6.81721 c -0.26306,0.23062 -0.39738,0.23214 -0.50382,0.49165 -0.96235,0.34568 -2.04966,1.38208 -4.28858,2.06786 -0.53747,0.16472 -2.32818,0.61942 -3.78801,0.7101 z"
       style="fill:#008000;fill-rule:evenodd;stroke-width:1.34105"
       id="path69" />
    <path
       d="m 205.87966,175.79909 13.03823,0.0152 c 0.0654,1.88392 -0.23315,12.92652 0.13735,13.59009 0.43185,0.22655 9.34332,0.22148 10.38171,0.0532 l 0.0355,-13.65161 13.03016,-0.0304 c 0.0943,-1.15523 0.14039,-9.76831 -0.0456,-10.47116 l -13.01379,-0.01 9.2e-4,-12.44252 -10.49768,0.0406 -0.0645,12.42573 -13.02469,0.002 z"
       style="fill:#008000;fill-rule:evenodd;stroke-width:1.34105"
       id="path71" />
    <path
       d="m 208.78048,208.03024 0.0355,0.84685 c 0.002,-0.0203 0.0152,0.076 0.0304,0.11354 0.0405,0.006 0.0933,-0.0152 0.11658,-0.0203 0.0203,-0.005 0.08,-0.0152 0.1034,-0.0203 l 2.94744,1.07686 c 0.0456,0.0152 0.91838,0.25039 1.04696,0.59368 h 22.29265 c 0.0902,-0.29042 0.52783,-0.20223 1.07872,-0.35732 0.01,-0.002 0.26763,-0.0953 0.27116,-0.0964 l 0.61888,-0.0968 c 0.56027,-0.15459 0.82718,-0.49571 1.04685,-0.59637 0.0254,-0.01 0.0604,-0.0253 0.0872,-0.0355 0.0304,-0.01 0.0659,-0.0203 0.0968,-0.0253 1.96557,-0.56575 1.07016,-0.74574 1.98756,-0.96891 l -0.11607,-0.5993 c -0.96235,0.34568 -2.04965,1.38209 -4.28857,2.0679 -0.53747,0.16474 -2.32818,0.61943 -3.78801,0.71006 m -0.89596,0 c -0.52556,-0.0406 -0.92922,-0.17638 -1.08948,-0.45212 l -2.30112,-6.12521 c -2.50842,0.0629 -4.66014,0.0254 -7.12016,0.01 l -2.44308,6.37803 c -1.82786,0.22301 -4.00935,-0.0456 -5.56793,-0.49925 -0.77603,-0.22657 -1.47888,-0.47492 -2.17008,-0.80985 -0.76185,-0.36899 -1.3342,-0.84406 -1.97846,-1.0942"
       style="fill:#fafffc;fill-rule:evenodd;stroke-width:1.34105"
       id="path73" />
    <path
       d="M 247.0565,66.662148 A 185.76051,185.76051 0 0 1 432.81702,252.42266 185.76051,185.76051 0 1 1 247.0565,66.662148 Z"
       style="fill:none;stroke:#1b1918;stroke-width:4.023;stroke-linecap:butt;stroke-linejoin:miter;stroke-dasharray:none"
       id="path75" />
    <path
       style="fill:#ffffff;fill-opacity:1;fill-rule:evenodd;stroke:#000000;stroke-width:0.313861;stroke-opacity:1"
       d="m 155.18326,153.86677 c 0,-0.44856 3.8455,-6.24685 6.07241,-9.15644 13.70046,-17.90005 33.14581,-28.74664 58.10693,-32.412 5.82556,-0.85542 16.08476,-0.3994 24.89477,1.10646 17.2336,2.94583 31.67929,9.86263 43.9589,21.04821 2.15544,1.9634 5.93424,5.86869 5.80434,5.9986 -0.0355,0.0355 -1.15615,-0.56554 -2.49094,-1.33499 -21.7644,-12.54597 -42.53009,-18.82146 -62.29485,-18.82577 -15.28317,-0.004 -30.62809,3.92294 -44.27767,11.32926 -9.93811,5.39252 -20.03604,12.85992 -28.22261,20.87062 -0.85318,0.83488 -1.55128,1.45411 -1.55128,1.37605 z"
       id="path2453" />
    <g
       id="path15269"
       inkscape:transform-center-x="-0.04103464"
       inkscape:transform-center-y="-2.554695"
       transform="matrix(1.044352,0,0,1.044352,-208.2902,82.067091)">
      <path
         style="color:#000000;fill:#000000;fill-rule:evenodd;stroke-width:5.974;-inkscape-stroke:none"
         d="m 244.08136,196.82649 -4.79436,-2.96065 -4.82307,2.91364 1.3342,-5.4746 -4.26144,-3.68664 5.61894,-0.42284 2.18935,-5.19212 2.13849,5.21327 5.61454,0.47775 -4.29728,3.64481 z"
         id="path11563" />
      <path
         style="color:#000000;fill:#000000;fill-rule:evenodd;-inkscape-stroke:none"
         d="m 239.38281,174.22461 -4.27148,10.12891 -10.96094,0.82421 8.31445,7.19336 -2.60351,10.67774 9.4082,-5.6836 9.35352,5.77539 -1.63282,-6.99218 -0.86523,-3.71094 8.38281,-7.11133 -10.95312,-0.93164 z m -0.0762,15.55664 0.10547,0.25781 0.27539,0.0234 -0.21094,0.17969 0.0625,0.26758 -0.23437,-0.14454 -0.23828,0.14258 0.0664,-0.26758 -0.21094,-0.18164 0.27735,-0.0215 z"
         id="path11565" />
    </g>
    <g
       id="path34686"
       inkscape:transform-center-x="-0.041038818"
       inkscape:transform-center-y="-2.5546944"
       transform="matrix(1.044352,0,0,1.044352,201.9621,82.266842)">
      <path
         style="color:#000000;fill:#000000;fill-rule:evenodd;stroke-width:5.974;-inkscape-stroke:none"
         d="m 244.08136,196.82649 -4.79436,-2.96065 -4.82307,2.91364 1.3342,-5.4746 -4.26144,-3.68664 5.61894,-0.42284 2.18935,-5.19212 2.13849,5.21327 5.61454,0.47775 -4.29728,3.64481 z"
         id="path11569" />
      <path
         style="color:#000000;fill:#000000;fill-rule:evenodd;-inkscape-stroke:none"
         d="m 239.38281,174.22461 -4.27148,10.12891 -10.96094,0.82421 8.31445,7.19336 -2.60351,10.67774 9.4082,-5.6836 9.35352,5.77539 -1.63282,-6.99218 -0.86523,-3.71094 8.38281,-7.11133 -10.95312,-0.93164 z m -0.0762,15.55664 0.10547,0.25781 0.27539,0.0234 -0.21094,0.17969 0.0625,0.26758 -0.23437,-0.14454 -0.23828,0.14258 0.0664,-0.26758 -0.21094,-0.18164 0.27735,-0.0215 z"
         id="path11571" />
    </g>
  </g>
</svg>
